<?xml version="1.0" encoding="UTF-8"?>
<svg version="1.1" xmlns="http://www.w3.org/2000/svg" width="422" height="455">
<path d="M0 0 C1.10261307 0.75557549 2.20549556 1.51075792 3.30859375 2.265625 C24.70127111 17.06022877 44.4743931 35.33163599 59 57 C59.68578125 58.01320313 60.3715625 59.02640625 61.078125 60.0703125 C90.47095659 105.83232265 90.47095659 105.83232265 87.53125 127.6796875 C85.77963095 135.33014128 79.21686179 139.94087767 72.9609375 143.9453125 C61.86883328 150.64605811 49.94300826 156.23366005 37 158 C37.16226074 158.86947266 37.32452148 159.73894531 37.49169922 160.63476562 C37.9649909 163.76822023 38.12916236 166.67960401 38.1328125 169.84375 C38.13410156 170.92527344 38.13539063 172.00679687 38.13671875 173.12109375 C38.13285156 174.23613281 38.12898438 175.35117188 38.125 176.5 C38.12886719 177.61503906 38.13273437 178.73007813 38.13671875 179.87890625 C38.13478516 181.50119141 38.13478516 181.50119141 38.1328125 183.15625 C38.13168457 184.13400391 38.13055664 185.11175781 38.12939453 186.11914062 C37.99341226 189.14667036 37.55552876 192.02320438 37 195 C37.93005859 195.11214844 37.93005859 195.11214844 38.87890625 195.2265625 C55.80048646 197.73893685 73.54202285 206.15993222 85 219 C88.79187304 224.74390235 88.1332486 230.46612237 87 237 C85.92507379 241.02233829 84.56410125 244.90724398 83.125 248.8125 C82.73006348 249.89547363 82.33512695 250.97844727 81.92822266 252.09423828 C72.48235151 277.20123897 57.62628147 300.67712589 39 320 C38.51418457 320.5062793 38.02836914 321.01255859 37.52783203 321.53417969 C-1.72698361 362.25093214 -55.04807966 385.13231467 -111.58325195 386.23217773 C-169.06048909 386.64535728 -220.52866421 364.02482533 -262 325 C-262.65871094 324.38382812 -263.31742187 323.76765625 -263.99609375 323.1328125 C-269.1448001 318.1624678 -273.54530419 312.58832808 -278 307 C-278.57492187 306.30390625 -279.14984375 305.6078125 -279.7421875 304.890625 C-308.17909007 269.78669742 -323.42442748 223.99069553 -323.31567383 179.04321289 C-323.31252468 176.33373296 -323.33602551 173.62536079 -323.36132812 170.91601562 C-323.41948569 155.13183661 -321.43672326 139.93934451 -317.3125 124.6875 C-317.0561377 123.73294922 -316.79977539 122.77839844 -316.53564453 121.79492188 C-304.14622753 76.95422406 -278.19298199 36.92299386 -240.56689453 9.16113281 C-239.11181434 8.08285899 -237.67795032 6.97611471 -236.24609375 5.8671875 C-228.62406977 0.07399491 -220.42745683 -4.50562175 -212 -9 C-211.34870117 -9.35094727 -210.69740234 -9.70189453 -210.02636719 -10.06347656 C-146.53793481 -44.02835005 -59.68035042 -42.12730618 0 0 Z M-201 12 C-201.92184082 12.49717529 -201.92184082 12.49717529 -202.86230469 13.00439453 C-211.02522528 17.41789122 -218.65508017 22.32185472 -226 28 C-226.84175781 28.64839844 -227.68351562 29.29679687 -228.55078125 29.96484375 C-259.77183611 54.48526786 -282.1438746 87.73059176 -293 126 C-293.29511475 127.02963867 -293.29511475 127.02963867 -293.59619141 128.08007812 C-306.99695399 175.72221637 -298.96508834 226.81961799 -274.953125 269.65625 C-264.79259714 287.0510737 -251.71721423 304.26639254 -236 317 C-235.26571777 317.60279785 -235.26571777 317.60279785 -234.51660156 318.21777344 C-226.07115374 325.12860312 -217.41054586 331.46508197 -208 337 C-207.31905273 337.4007373 -206.63810547 337.80147461 -205.93652344 338.21435547 C-181.10937417 352.56702573 -151.90572312 362.01708857 -123.046875 362.203125 C-122.31314163 362.21018463 -121.57940826 362.21724426 -120.82344055 362.22451782 C-70.95885968 362.5951652 -27.03520032 347.901615 11 315 C11.92296875 314.21109375 12.8459375 313.4221875 13.796875 312.609375 C20.28211052 306.91240016 25.77062281 300.85747432 31 294 C31.64171143 293.17072998 31.64171143 293.17072998 32.29638672 292.32470703 C43.13223184 278.27361654 51.99341556 263.30139519 59 247 C59.26216309 246.39043457 59.52432617 245.78086914 59.79443359 245.15283203 C62.79924051 238.73800136 62.79924051 238.73800136 64 231.8828125 C60.51853207 225.32786116 48.85088044 221.72894134 42.08398438 219.56030273 C41.33439453 219.33415283 40.58480469 219.10800293 39.8125 218.875 C39.08224609 218.65078369 38.35199219 218.42656738 37.59960938 218.19555664 C35.30018221 217.51980108 35.30018221 217.51980108 32 217 C28.4563262 219.3624492 27.47144234 221.77655644 25.75 225.5 C19.86838769 237.71587672 12.89265846 249.33550107 6 261 C5.50113281 261.84820312 5.00226563 262.69640625 4.48828125 263.5703125 C-0.08978921 271.30974394 -4.71953174 278.37102651 -10.9921875 284.88671875 C-13.06518866 286.9998945 -13.06518866 286.9998945 -14.94921875 289.5 C-27.67583986 305.01435717 -48.94089751 314.42747814 -68 319 C-68.65313675 319.1681723 -69.3062735 319.3363446 -69.97920227 319.50961304 C-77.89708164 321.34840574 -85.79447651 321.32786653 -93.875 321.3359375 C-95.40942502 321.34238499 -96.94384887 321.3491147 -98.47827148 321.35610962 C-101.68557576 321.368027 -104.89277283 321.37179654 -108.10009766 321.37060547 C-111.35260377 321.37044343 -114.60454362 321.38425635 -117.85693359 321.41162109 C-153.78567537 321.70959902 -184.94526503 316.06775966 -212 290 C-214.50377277 287.4558438 -216.77376425 284.78972281 -219 282 C-220.05574219 280.67742187 -220.05574219 280.67742187 -221.1328125 279.328125 C-229.41309572 268.34240271 -235.73176525 256.18597498 -242.28466797 244.12939453 C-244.14633554 240.73303032 -246.06277718 237.37247164 -247.99902344 234.01831055 C-263.1775339 207.65338269 -268.52725139 177.72086002 -261 148 C-250.09348145 108.75961581 -222.03507665 65.16027085 -187 44 C-168.53164207 33.80445446 -147.49793034 30.8562188 -126.70703125 30.83203125 C-125.67672287 30.82870285 -124.64641449 30.82537445 -123.58488464 30.82194519 C-121.4210962 30.81692228 -119.25730013 30.81453541 -117.09350586 30.81469727 C-113.83759359 30.8125168 -110.58202422 30.79432715 -107.32617188 30.77539062 C-76.49352806 30.69094097 -47.08441716 35.09313713 -23 56 C-22.00613281 56.85980469 -21.01226562 57.71960938 -19.98828125 58.60546875 C-9.69725017 67.67561227 -2.24932948 77.70601505 4.57470703 89.53222656 C6.23678118 92.40996645 7.91367786 95.27888347 9.58984375 98.1484375 C16.66325176 110.29644072 23.57400658 122.4963055 30 135 C42.56566707 134.08538188 53.5908597 128.90677074 64 122 C60.00728604 96.86068986 42.32055199 71.76308358 26 53 C25.15953125 52.02546875 24.3190625 51.0509375 23.453125 50.046875 C-3.14238687 19.78268111 -40.73812764 0.52176659 -80 -7 C-81.20785156 -7.23203125 -82.41570312 -7.4640625 -83.66015625 -7.703125 C-91.72249069 -9.07460352 -99.83597321 -9.63616837 -108 -10 C-109.40765625 -10.06380859 -109.40765625 -10.06380859 -110.84375 -10.12890625 C-141.98230327 -10.79999576 -173.74882518 -2.99463109 -201 12 Z " fill="#036BF9" transform="translate(323,59)"/>
<path d="M0 0 C1.03030838 -0.0033284 2.06061676 -0.0066568 3.12214661 -0.01008606 C5.28593505 -0.01510897 7.44973112 -0.01749584 9.61352539 -0.01733398 C12.86943766 -0.01951445 16.12500703 -0.0377041 19.38085938 -0.05664062 C50.21601588 -0.14109717 79.619179 4.26289577 103.70703125 25.16796875 C104.68929687 26.01617187 105.6715625 26.864375 106.68359375 27.73828125 C117.2774391 37.06254672 125.27628203 47.46742692 132.28466797 59.68994141 C133.9784228 62.64078445 135.68856609 65.58190473 137.3984375 68.5234375 C144.12098982 80.11378947 144.12098982 80.11378947 146.95068359 85.08789062 C148.11776769 87.1345869 149.30035301 89.17252443 150.49853516 91.20117188 C151.04815918 92.15443359 151.5977832 93.10769531 152.1640625 94.08984375 C152.65495361 94.92612305 153.14584473 95.76240234 153.65161133 96.62402344 C154.89687219 99.62555436 154.8977373 101.94910843 154.70703125 105.16796875 C138.17258342 109.77592962 119.34111433 106.68376979 104.14453125 99.16796875 C97.20150758 95.19204921 91.45662117 90.06038637 85.51171875 84.76611328 C60.69469993 62.78935392 36.18990124 56.65794337 3.28222656 58.28808594 C-15.37744704 59.55684677 -32.14121484 65.76423182 -46.29296875 78.16796875 C-46.92074219 78.71195312 -47.54851562 79.2559375 -48.1953125 79.81640625 C-55.78874686 86.87606178 -61.00607942 95.60725755 -64.66796875 105.23046875 C-65.02580444 106.16620728 -65.02580444 106.16620728 -65.39086914 107.12084961 C-69.6125693 118.96205488 -69.66560418 130.86261769 -69.66357422 143.29003906 C-69.66792865 146.26556475 -69.70428293 149.23958106 -69.7421875 152.21484375 C-69.82992834 166.8600166 -68.73475664 181.40109469 -61.60546875 194.54296875 C-61.26515625 195.19450928 -60.92484375 195.8460498 -60.57421875 196.51733398 C-50.79001363 214.57586348 -35.13051762 225.85411029 -15.79882812 231.70947266 C-8.99723652 233.65998016 -2.58415012 234.34057501 4.4453125 234.40625 C5.28434616 234.41432175 6.12337982 234.42239349 6.98783875 234.43070984 C8.76376312 234.44449965 10.53971344 234.45524447 12.31567383 234.46313477 C14.09863274 234.47456502 15.88155992 234.4948717 17.66430664 234.5246582 C32.93448473 234.7790901 48.03456403 233.80188479 61.58203125 225.98046875 C62.28561768 225.59028564 62.9892041 225.20010254 63.71411133 224.7980957 C69.95290354 221.23562591 75.36654899 216.9659986 80.70703125 212.16796875 C99.20455177 195.68336422 116.28076033 186.07558793 141.51953125 185.91796875 C142.78700195 185.88703125 142.78700195 185.88703125 144.08007812 185.85546875 C145.29727539 185.84773438 145.29727539 185.84773438 146.5390625 185.83984375 C147.26843018 185.83049805 147.99779785 185.82115234 148.74926758 185.81152344 C151.264018 186.26937798 152.16411472 187.16809513 153.70703125 189.16796875 C153.6328125 191.10546875 153.6328125 191.10546875 153.01953125 193.16796875 C152.83003906 193.84859375 152.64054687 194.52921875 152.4453125 195.23046875 C151.70703125 197.16796875 151.70703125 197.16796875 149.70703125 200.16796875 C149.46984375 201.14894531 149.23265625 202.12992188 148.98828125 203.140625 C147.4616028 208.78726417 144.1856661 213.62552072 141.20703125 218.60546875 C140.57772705 219.66717285 139.94842285 220.72887695 139.30004883 221.82275391 C137.44448385 224.94316535 135.57638523 228.05580534 133.70703125 231.16796875 C133.21509277 231.99796387 132.7231543 232.82795898 132.21630859 233.68310547 C127.07816068 242.34893702 121.70722238 249.85791001 114.70703125 257.16796875 C113.92328125 258.17859375 113.13953125 259.18921875 112.33203125 260.23046875 C98.53558529 275.66934875 78.57432667 285.40155109 58.70703125 290.16796875 C58.0538945 290.33614105 57.40075775 290.50431335 56.72782898 290.67758179 C48.80994961 292.51637449 40.91255474 292.49583528 32.83203125 292.50390625 C31.29760623 292.51035374 29.76318238 292.51708345 28.22875977 292.52407837 C25.02145549 292.53599575 21.81425842 292.53976529 18.60693359 292.53857422 C15.35442748 292.53841218 12.10248763 292.5522251 8.85009766 292.57958984 C-27.830546 292.88380373 -58.80530605 286.76215102 -86.29296875 260.16796875 C-88.79905351 257.62298689 -91.07055148 254.96360992 -93.29296875 252.16796875 C-93.99550781 251.28753906 -94.69804688 250.40710938 -95.421875 249.5 C-103.70537813 238.51446454 -110.02392785 226.35542696 -116.57763672 214.29736328 C-118.43930429 210.90099907 -120.35574593 207.54044039 -122.29199219 204.1862793 C-137.47050265 177.82135144 -142.82022014 147.88882877 -135.29296875 118.16796875 C-124.24049774 78.40246459 -95.8949693 34.67064682 -60.29296875 13.16796875 C-41.82461082 2.97242321 -20.79089909 0.02418755 0 0 Z " fill="#006BFD" transform="translate(196.29296875,88.83203125)"/>
<path d="M0 0 C0.85846527 -0.00570007 1.71693054 -0.01140015 2.60140991 -0.01727295 C4.41866835 -0.02670983 6.23594381 -0.03325172 8.05322266 -0.03710938 C10.80532603 -0.04676757 13.556667 -0.07778337 16.30859375 -0.109375 C33.49579687 -0.21509997 33.49579687 -0.21509997 41.2109375 3.203125 C42.91056641 3.93208984 42.91056641 3.93208984 44.64453125 4.67578125 C51.40972526 8.25631956 56.80744871 12.23619686 62.33203125 17.51953125 C74.03663292 28.43006225 87.0920389 37.75469213 102.2109375 43.203125 C103.0359375 43.50089844 103.8609375 43.79867187 104.7109375 44.10546875 C121.74658101 49.45572554 140.59633542 48.48582849 158.2109375 48.203125 C158.37677755 50.10140805 158.5404082 51.99988419 158.703125 53.8984375 C158.7944873 54.95562988 158.88584961 56.01282227 158.97998047 57.10205078 C159.65608668 66.18017037 158.94185789 75.14493305 158.2109375 84.203125 C157.30106079 84.09919434 157.30106079 84.09919434 156.37280273 83.99316406 C127.68245808 80.89448554 98.72004773 83.98011482 75.5859375 102.578125 C72.08178136 105.53162803 68.69829965 108.59022843 65.3359375 111.703125 C52.81530081 123.03509365 39.36709086 131.26877772 22.15625 131.44140625 C21.37764618 131.449478 20.59904236 131.45754974 19.79684448 131.46586609 C18.14778843 131.47966533 16.49870431 131.490406 14.84960938 131.49829102 C13.19164436 131.50972415 11.53371356 131.53003573 9.87597656 131.55981445 C-6.17112295 131.84740264 -19.51786382 130.07725917 -32.7890625 120.203125 C-34.366875 119.1203125 -34.366875 119.1203125 -35.9765625 118.015625 C-47.28854478 106.70364272 -51.89118612 92.66800582 -52.02734375 77.01953125 C-52.0354155 76.12757553 -52.04348724 75.23561981 -52.05180359 74.31663513 C-52.06561023 72.42798788 -52.07634762 70.53931604 -52.08422852 68.65063477 C-52.09568815 66.74333238 -52.11604319 64.83606051 -52.14575195 62.92895508 C-52.40434508 46.30242858 -51.01477893 33.01009454 -40.7890625 19.203125 C-40.32757813 18.54699219 -39.86609375 17.89085937 -39.390625 17.21484375 C-30.24766331 5.29728386 -14.47803602 0.07476878 0 0 Z " fill="#006BFD" transform="translate(200.7890625,169.796875)"/>
<path d="M0 0 C16.54098717 14.58552259 32.58216616 25.72907349 55.3125 26.625 C56.13339111 26.66294678 56.95428223 26.70089355 57.80004883 26.73999023 C64.20061095 27.01685614 70.59381669 27.11508114 77 27 C80.94524341 34.36445437 83.14427627 40.51174619 83 49 C55.69958893 52.94665441 28.51402926 50.73922926 5 35 C-0.63894275 30.77079294 -5.87183313 26.13648537 -11.0625 21.375 C-23.23824584 10.36705368 -36.17460709 2.91347253 -52.78125 2.76171875 C-53.6311853 2.753647 -54.48112061 2.74557526 -55.35681152 2.73725891 C-57.1554971 2.72345691 -58.95420844 2.71271747 -60.75292969 2.70483398 C-62.57006653 2.69336787 -64.38717113 2.67300217 -66.20410156 2.64331055 C-84.19709442 2.34976828 -99.43199763 5.00608935 -113 18 C-114.6847296 20.13453604 -116.16757175 22.16547346 -117.625 24.4375 C-118.35976562 25.52933594 -119.09453125 26.62117188 -119.8515625 27.74609375 C-126.26446819 39.39584097 -126.61386455 51.39842414 -126.46655273 64.34130859 C-126.43746993 67.12788159 -126.44601291 69.91255698 -126.45898438 72.69921875 C-126.43961858 89.34453785 -123.99592489 105.42910703 -112 118 C-98.04184496 129.47149213 -83.69592195 132.54038604 -66.00073242 132.44604492 C-63.56928992 132.4375238 -61.14019719 132.46641536 -58.70898438 132.49804688 C-40.4332569 132.58117491 -26.21618553 127.21156008 -12.84692383 114.47924805 C8.94437172 93.8688821 32.67667161 83.9734451 62.8125 83.75 C63.67174072 83.7406543 64.53098145 83.73130859 65.41625977 83.72167969 C71.47576567 83.75195684 77.1051268 84.61852431 83 86 C82.07596254 102.92403746 82.07596254 102.92403746 77 108 C75.28629668 108.06319104 73.57004005 108.05924076 71.85546875 108.02734375 C70.78490234 108.01509766 69.71433594 108.00285156 68.61132812 107.99023438 C66.37166979 107.95573878 64.13207367 107.91685443 61.89257812 107.87304688 C37.38630663 107.62550878 20.58230925 117.06897853 2.6484375 132.8203125 C-4.86243604 139.39281559 -12.39262942 144.99915491 -21.375 149.375 C-22.02194824 149.69702393 -22.66889648 150.01904785 -23.33544922 150.35083008 C-35.46675915 155.94568244 -48.09947362 156.51147871 -61.2121582 156.44604492 C-63.79915357 156.43754386 -66.38392447 156.46639607 -68.97070312 156.49804688 C-82.9226195 156.55832509 -96.97322373 155.05120825 -109.4375 148.25 C-110.09306885 147.90565918 -110.7486377 147.56131836 -111.42407227 147.20654297 C-129.75831934 137.27502201 -141.58210967 121.17105774 -147.54199219 101.50537109 C-149.61309974 94.27864553 -150.16823151 87.52937613 -150.203125 80.0625 C-150.20882507 79.10537109 -150.21452515 78.14824219 -150.22039795 77.16210938 C-150.22982127 75.13819473 -150.23637129 73.11426493 -150.24023438 71.09033203 C-150.24988054 68.03780241 -150.28090503 64.98596394 -150.3125 61.93359375 C-150.4435332 37.87375898 -145.12464444 17.49600878 -128.1875 -0.3125 C-94.93945023 -31.91867077 -33.42787294 -29.7085629 0 0 Z " fill="#0AE8F0" transform="translate(276,168)"/>
<path d="M0 0 C3.43839315 1.33476085 6.74393925 2.83077602 10.0625 4.4375 C25.59498717 11.43021335 42.23628386 11.3011446 59 11 C62.94524341 18.36445437 65.14427627 24.51174619 65 33 C38.52373804 36.82751218 11.93784896 35.06752607 -11 20 C-8.07175348 19.02391783 -6.04386724 18.91773332 -3 19 C-3 19.66 -3 20.32 -3 21 C-2.34 21 -1.68 21 -1 21 C-0.443125 21.639375 0.11375 22.27875 0.6875 22.9375 C3.69420892 25.61915931 6.05659881 25.69666145 10 26 C10 26.99 10 27.98 10 29 C11.07378906 29.13277344 12.14757812 29.26554687 13.25390625 29.40234375 C14.69010833 29.58069564 16.12630601 29.75908295 17.5625 29.9375 C18.26697266 30.02451172 18.97144531 30.11152344 19.69726562 30.20117188 C20.39658203 30.28818359 21.09589844 30.37519531 21.81640625 30.46484375 C22.45006104 30.543396 23.08371582 30.62194824 23.73657227 30.70288086 C25.59369416 30.94666442 27.4454057 31.23133346 29.29492188 31.52734375 C33.06552065 32.00835846 36.66521164 32.11342236 40.46484375 32.09765625 C41.14301651 32.0962413 41.82118927 32.09482635 42.51991272 32.09336853 C44.65915578 32.08782745 46.79828925 32.07528653 48.9375 32.0625 C50.39908702 32.05747736 51.86067569 32.0529158 53.32226562 32.04882812 C56.88154526 32.03787745 60.44076191 32.02065445 64 32 C63.72285156 31.04738281 63.44570313 30.09476563 63.16015625 29.11328125 C62.61681641 27.23189453 62.61681641 27.23189453 62.0625 25.3125 C61.52302734 23.45044922 61.52302734 23.45044922 60.97265625 21.55078125 C60.19273569 18.70360138 59.52712784 15.90197746 59 13 C58.2565332 13.02618408 57.51306641 13.05236816 56.74707031 13.0793457 C15.64432624 14.3301611 15.64432624 14.3301611 1 2 C0.67 1.34 0.34 0.68 0 0 Z " fill="#20D1FE" transform="translate(294,184)"/>
<path d="M0 0 C1.03030838 -0.0033284 2.06061676 -0.0066568 3.12214661 -0.01008606 C5.28593505 -0.01510897 7.44973112 -0.01749584 9.61352539 -0.01733398 C12.86943766 -0.01951445 16.12500703 -0.0377041 19.38085938 -0.05664062 C49.70673209 -0.13970225 78.65443183 4.09444133 102.70703125 24.16796875 C100.05923432 24.16796875 98.19115332 23.99600944 95.70703125 23.16796875 C95.37703125 22.50796875 95.04703125 21.84796875 94.70703125 21.16796875 C91.67768634 20.51024447 91.67768634 20.51024447 88.70703125 20.16796875 C88.70703125 19.17796875 88.70703125 18.18796875 88.70703125 17.16796875 C87.22203125 16.67296875 87.22203125 16.67296875 85.70703125 16.16796875 C85.70703125 15.50796875 85.70703125 14.84796875 85.70703125 14.16796875 C84.38703125 14.16796875 83.06703125 14.16796875 81.70703125 14.16796875 C81.70703125 13.50796875 81.70703125 12.84796875 81.70703125 12.16796875 C78.73703125 11.83796875 75.76703125 11.50796875 72.70703125 11.16796875 C72.21203125 9.68296875 72.21203125 9.68296875 71.70703125 8.16796875 C65.07217283 5.5717198 57.85390122 4.803403 50.7890625 4.37890625 C48.70703125 4.16796875 48.70703125 4.16796875 47.70703125 3.16796875 C45.53440445 3.06840597 43.35850019 3.03997156 41.18359375 3.03857422 C40.50230408 3.0368219 39.8210144 3.03506958 39.11907959 3.03326416 C36.85670458 3.02884633 34.59440712 3.03178337 32.33203125 3.03515625 C30.76643865 3.03448319 29.20084615 3.03351315 27.63525391 3.03225708 C24.3499248 3.0307802 21.06462283 3.03293434 17.77929688 3.03759766 C13.55882609 3.04329495 9.33841889 3.04001589 5.11795044 3.03402519 C1.88386553 3.03041931 -1.3502042 3.03155829 -4.58428955 3.03415298 C-6.14088956 3.03482218 -7.69749093 3.03399409 -9.25408936 3.03167343 C-11.42594071 3.02914645 -13.59768771 3.0329881 -15.76953125 3.03857422 C-17.00783691 3.03936981 -18.24614258 3.04016541 -19.52197266 3.04098511 C-22.20151617 2.85185098 -22.20151617 2.85185098 -23.29296875 4.16796875 C-24.97905841 4.24002386 -26.66797534 4.25182943 -28.35546875 4.23046875 C-29.27457031 4.22144531 -30.19367188 4.21242188 -31.140625 4.203125 C-31.85089844 4.19152344 -32.56117188 4.17992188 -33.29296875 4.16796875 C-33.29296875 3.83796875 -33.29296875 3.50796875 -33.29296875 3.16796875 C-22.26346413 0.65460818 -11.28659744 0.01313051 0 0 Z " fill="#1E6CD3" transform="translate(196.29296875,88.83203125)"/>
<path d="M0 0 C1.03125 0.226875 2.0625 0.45375 3.125 0.6875 C11.6119434 3.03995766 18.44727149 10.09560213 24.67578125 15.984375 C26.99109547 17.99227775 29.3789585 19.43008186 32 21 C32.495 21.99 32.495 21.99 33 23 C34.485 23.495 34.485 23.495 36 24 C35.505 25.485 35.505 25.485 35 27 C33.35203279 25.66930498 31.70676816 24.33526303 30.0625 23 C29.04671875 22.17628906 28.0309375 21.35257813 26.984375 20.50390625 C24.47580914 18.39920636 22.15436839 16.22036783 19.8125 13.9375 C9.85647278 4.95367074 -3.68349228 -0.29886459 -16.9765625 -0.3359375 C-17.82366791 -0.3425943 -18.67077332 -0.3492511 -19.54354858 -0.35610962 C-21.33028001 -0.36619092 -23.11704875 -0.37092805 -24.90380859 -0.37060547 C-27.596684 -0.37495427 -30.28788522 -0.41125337 -32.98046875 -0.44921875 C-46.14181503 -0.53509347 -56.53524216 1.1211453 -68 8 C-68.66 7.67 -69.32 7.34 -70 7 C-67.35629353 3.74767046 -64.25074626 2.7757686 -60.375 1.375 C-56.39855257 0.18783379 -56.39855257 0.18783379 -53 -2 C-12.93053465 -6.86600704 -12.93053465 -6.86600704 0 0 Z " fill="#1ED4FD" transform="translate(240,171)"/>
<path d="M0 0 C0.495 0.99 0.495 0.99 1 2 C-14.02147279 13.19140468 -26.44499472 18.73433898 -45.42773438 18.57641602 C-47.73455758 18.56259254 -50.03726891 18.59670083 -52.34375 18.63476562 C-65.41558054 18.70209777 -77.36484075 16.168621 -89 10 C-89 9.01 -89 8.02 -89 7 C-88.12601563 7.48919922 -88.12601563 7.48919922 -87.234375 7.98828125 C-86.41453125 8.42527344 -85.5946875 8.86226563 -84.75 9.3125 C-83.96109375 9.74175781 -83.1721875 10.17101562 -82.359375 10.61328125 C-72.01069714 14.8851192 -62.03759686 15.50488747 -51.00073242 15.44604492 C-48.56928992 15.4375238 -46.14019719 15.46641536 -43.70898438 15.49804688 C-31.71550484 15.55313634 -20.89745923 13.92539615 -10.5 7.5 C-9.5615625 6.9328125 -8.623125 6.365625 -7.65625 5.78125 C-4.97805334 3.98528283 -2.48512312 2.05292779 0 0 Z " fill="#1DDBFC" transform="translate(261,285)"/>
<path d="M0 0 C0.84288574 -0.00531738 1.68577148 -0.01063477 2.55419922 -0.01611328 C8.53103842 0.05093648 14.12107893 0.96288018 19.9375 2.3125 C19.01346254 19.23653746 19.01346254 19.23653746 13.9375 24.3125 C11.48919574 24.40093793 9.06929401 24.42778752 6.62109375 24.41015625 C5.89003922 24.4087413 5.15898468 24.40732635 4.40577698 24.40586853 C2.06214368 24.40025408 -0.28139539 24.38769922 -2.625 24.375 C-4.21028508 24.36998686 -5.79557166 24.36542363 -7.38085938 24.36132812 C-11.2747761 24.35027997 -15.16862205 24.33300572 -19.0625 24.3125 C-19.0625 23.9825 -19.0625 23.6525 -19.0625 23.3125 C-14.83967482 22.50854975 -10.86636236 22.19438637 -6.5703125 22.21484375 C-5.37148438 22.21806641 -4.17265625 22.22128906 -2.9375 22.22460938 C-1.08125 22.23717773 -1.08125 22.23717773 0.8125 22.25 C2.07320313 22.25451172 3.33390625 22.25902344 4.6328125 22.26367188 C7.73442386 22.2754204 10.83593725 22.29184833 13.9375 22.3125 C13.9375 20.3325 13.9375 18.3525 13.9375 16.3125 C14.5975 16.3125 15.2575 16.3125 15.9375 16.3125 C16.5975 12.0225 17.2575 7.7325 17.9375 3.3125 C2.85914005 1.63752789 2.85914005 1.63752789 -12.0625 3.3125 C-14.14307495 3.51065 -16.227096 3.67413196 -18.3125 3.8125 C-23.26087071 4.16396263 -28.14862576 4.63804667 -33.0625 5.3125 C-24.42633187 -0.44494542 -10.10318331 0.03094111 0 0 Z " fill="#1FD4FD" transform="translate(339.0625,251.6875)"/>
<path d="M0 0 C0.33 0.66 0.66 1.32 1 2 C0.29014905 3.89892618 -0.49534735 5.7697182 -1.3125 7.625 C-4.02537232 14.34330431 -4.96466532 20.68162228 -5.640625 27.859375 C-6 31 -6 31 -7 32 C-7.15146512 34.63894415 -7.23719763 37.24921674 -7.2734375 39.890625 C-7.28564835 40.6990686 -7.29785919 41.50751221 -7.31044006 42.3404541 C-7.34256956 44.97699533 -7.36115117 47.61330157 -7.375 50.25 C-7.38089142 51.13804321 -7.38678284 52.02608643 -7.39285278 52.94104004 C-7.4375847 65.29602395 -6.68581408 76.60363112 -2.99609375 88.484375 C-2 92 -2 92 -3 95 C-3.8175507 92.45986091 -4.62915186 89.91806769 -5.4375 87.375 C-5.66759766 86.66214844 -5.89769531 85.94929688 -6.13476562 85.21484375 C-6.35712891 84.51230469 -6.57949219 83.80976563 -6.80859375 83.0859375 C-7.01282959 82.4470459 -7.21706543 81.8081543 -7.42749023 81.14990234 C-9.03395227 75.11727775 -9.17415291 69.26225312 -9.203125 63.0625 C-9.20882507 62.10537109 -9.21452515 61.14824219 -9.22039795 60.16210938 C-9.22982127 58.13819473 -9.23637129 56.11426493 -9.24023438 54.09033203 C-9.24988054 51.03780241 -9.28090503 47.98596394 -9.3125 44.93359375 C-9.38628966 31.48635583 -8.49337696 19.2950359 -3.375 6.6875 C-2.73691406 5.08455078 -2.73691406 5.08455078 -2.0859375 3.44921875 C-1 1 -1 1 0 0 Z " fill="#1FD6FD" transform="translate(135,185)"/>
<path d="M0 0 C1.65 0.33 3.3 0.66 5 1 C-5.15447311 12.50840285 -22.22079614 19.1466152 -37.29638672 20.15335083 C-43.15643953 20.36141372 -49.01333057 20.2755746 -54.875 20.1875 C-56.64191555 20.17241064 -58.40884371 20.15872983 -60.17578125 20.14648438 C-64.45083963 20.11385054 -68.72527541 20.06230911 -73 20 C-73 19.67 -73 19.34 -73 19 C-72.02353516 18.98541748 -71.04707031 18.97083496 -70.04101562 18.95581055 C-66.33544522 18.89679348 -62.63041895 18.81959358 -58.92529297 18.73754883 C-57.33716823 18.70477597 -55.74894028 18.67660485 -54.16064453 18.65356445 C-34.72635388 18.6952011 -34.72635388 18.6952011 -17 12 C-15.38816536 11.341791 -13.76259641 10.71620893 -12.125 10.125 C-7.45545923 8.30052374 -3.83025528 6.24739035 0 3 C0 2.01 0 1.02 0 0 Z " fill="#1DD7FD" transform="translate(267,304)"/>
<path d="M0 0 C0 0.33 0 0.66 0 1 C-1.99954746 1.04254356 -4.00041636 1.04080783 -6 1 C-6.495 0.505 -6.495 0.505 -7 0 C-18.77687485 -2.95113002 -30.41133068 -3.52240617 -42.5 -3.6875 C-44.20965963 -3.72078397 -45.91929604 -3.75528317 -47.62890625 -3.79101562 C-51.75247233 -3.8746228 -55.87599743 -3.94201022 -60 -4 C-60 -4.33 -60 -4.66 -60 -5 C-40.07455655 -7.6694374 -18.87828248 -7.24194822 0 0 Z " fill="#24C4FC" transform="translate(251,152)"/>
<path d="M0 0 C2.64 0 5.28 0 8 0 C8 0.66 8 1.32 8 2 C8.66 2 9.32 2 10 2 C10.556875 2.639375 11.11375 3.27875 11.6875 3.9375 C14.69420892 6.61915931 17.05659881 6.69666145 21 7 C21 7.99 21 8.98 21 10 C22.62630208 10.20328776 24.25260417 10.40657552 25.87890625 10.60986328 C27.30338542 10.78792318 28.72786458 10.96598307 30.15234375 11.14404297 C31.25255859 11.28156982 31.25255859 11.28156982 32.375 11.421875 C37.62369792 12.07796224 42.87239583 12.73404948 48.12109375 13.39013672 C48.76175781 13.47021973 49.40242188 13.55030273 50.0625 13.6328125 C51.031875 13.75398437 52.00125 13.87515625 53 14 C53 14.33 53 14.66 53 15 C34.13295449 15.79595348 15.66663033 12.17529387 0 1 C0 0.67 0 0.34 0 0 Z " fill="#1CD8FD" transform="translate(283,203)"/>
<path d="M0 0 C1.17077109 3.51231327 0.44242812 5.25846475 -0.49960327 8.73400879 C-1.36456341 12.65088506 -1.30511848 16.55058766 -1.30078125 20.546875 C-1.30506638 21.43932922 -1.3093515 22.33178345 -1.31376648 23.25128174 C-1.31947937 25.13040321 -1.32003262 27.00954678 -1.31567383 28.88867188 C-1.31252412 31.72825898 -1.33597582 34.56679205 -1.36132812 37.40625 C-1.40582862 50.21536162 0.17833031 61.06062742 5 73 C3.68 72.67 2.36 72.34 1 72 C0.67 69.03 0.34 66.06 0 63 C-0.66 63 -1.32 63 -2 63 C-3.15664 57.46947247 -3.161511 52.07157999 -3.16796875 46.44921875 C-3.17129715 45.43583939 -3.17462555 44.42246002 -3.17805481 43.37837219 C-3.18310507 41.23931327 -3.18546372 39.10024652 -3.18530273 36.96118164 C-3.18748556 33.70901329 -3.20565167 30.45718639 -3.22460938 27.20507812 C-3.22754452 25.11979282 -3.22952851 23.03450591 -3.23046875 20.94921875 C-3.23765427 19.98642502 -3.24483978 19.02363129 -3.25224304 18.03166199 C-3.20270264 3.20270264 -3.20270264 3.20270264 0 0 Z " fill="#24D5FD" transform="translate(151,203)"/>
<path d="M0 0 C-8.58511235 3.64225211 -17.14659313 3.39548214 -26.2878418 3.28125 C-28.82420499 3.24985512 -31.35994523 3.24024379 -33.89648438 3.234375 C-35.52084089 3.2252118 -37.14519112 3.21483822 -38.76953125 3.203125 C-39.52168411 3.19887512 -40.27383698 3.19462524 -41.04878235 3.19024658 C-44.81581741 3.13913618 -48.33607752 2.89919947 -52 2 C-52 1.67 -52 1.34 -52 1 C-50.13867432 0.96241577 -50.13867432 0.96241577 -48.23974609 0.92407227 C-43.62148293 0.82966659 -39.00335857 0.72952766 -34.38525391 0.62768555 C-32.38919327 0.58446185 -30.39309864 0.54277826 -28.39697266 0.50268555 C-25.52235691 0.44467761 -22.64791025 0.38107209 -19.7734375 0.31640625 C-18.44184097 0.29133751 -18.44184097 0.29133751 -17.08334351 0.26576233 C-13.51365272 0.18104468 -10.16493391 0.02857529 -6.63916016 -0.58227539 C-4.0211594 -0.9966509 -2.47850636 -0.85794451 0 0 Z " fill="#0075E9" transform="translate(241,298)"/>
<path d="M0 0 C3.46941546 0.45822468 6.67395049 0.89131683 10 2 C11.89470816 2.0685495 13.7916834 2.08480372 15.6875 2.0625 C16.68136719 2.05347656 17.67523438 2.04445313 18.69921875 2.03515625 C19.45847656 2.02355469 20.21773437 2.01195312 21 2 C21 2.66 21 3.32 21 4 C28.3364958 6.56777353 35.16016608 8.17710007 42.8984375 8.65625 C45 9 45 9 47 11 C31.0750515 10.6694822 14.8610349 6.61207858 0 1 C0 0.67 0 0.34 0 0 Z " fill="#196FDE" transform="translate(138,432)"/>
<path d="M0 0 C-1.6232687 0.6708712 -3.24867578 1.33657029 -4.875 2 C-6.23238281 2.556875 -6.23238281 2.556875 -7.6171875 3.125 C-10 4 -10 4 -12 4 C-12.33 4.99 -12.66 5.98 -13 7 C-14.32104718 7.37910846 -15.65791826 7.70384886 -17 8 C-19.36659751 9.2903232 -19.36659751 9.2903232 -21.6875 10.875 C-22.47511719 11.38804687 -23.26273437 11.90109375 -24.07421875 12.4296875 C-26.277501 13.94017799 -26.277501 13.94017799 -27 17 C-27.845625 17.4125 -28.69125 17.825 -29.5625 18.25 C-34.01630103 20.51738962 -37.35347767 23.62187652 -41 27 C-41.66 26.67 -42.32 26.34 -43 26 C-11.89548023 -3.96516008 -11.89548023 -3.96516008 0 0 Z " fill="#1FD4FD" transform="translate(305,258)"/>
<path d="M0 0 C0 0.33 0 0.66 0 1 C-1.2065625 1.31453125 -2.413125 1.6290625 -3.65625 1.953125 C-5.27095432 2.38496453 -6.88553093 2.8172818 -8.5 3.25 C-9.29148438 3.45496094 -10.08296875 3.65992188 -10.8984375 3.87109375 C-16.31466437 5.33613872 -21.06941452 7.33995797 -26 10 C-26.969375 10.474375 -27.93875 10.94875 -28.9375 11.4375 C-31.24818991 12.86976639 -31.24818991 12.86976639 -31.8125 15.6875 C-31.874375 16.450625 -31.93625 17.21375 -32 18 C-33.3921875 17.9071875 -33.3921875 17.9071875 -34.8125 17.8125 C-37.98395103 17.69105736 -37.98395103 17.69105736 -39.875 19.5 C-40.24625 19.995 -40.6175 20.49 -41 21 C-41.66 20.67 -42.32 20.34 -43 20 C-32.1648289 9.4591175 -15.71061835 -0.76637163 0 0 Z " fill="#22D5FE" transform="translate(191,148)"/>
<path d="M0 0 C5.25174926 4.38442526 10.13222473 9.00842093 14.9375 13.875 C15.62134766 14.56335938 16.30519531 15.25171875 17.00976562 15.9609375 C18.67551464 17.63833511 20.3388622 19.31803791 22 21 C21.67 21.66 21.34 22.32 21 23 C18.0625 22.1875 18.0625 22.1875 15 21 C14.67 20.01 14.34 19.02 14 18 C13.34 17.67 12.68 17.34 12 17 C11.375 14.9375 11.375 14.9375 11 13 C10.01 13 9.02 13 8 13 C8 12.34 8 11.68 8 11 C7.01 11.33 6.02 11.66 5 12 C4.67 10.02 4.34 8.04 4 6 C3.01 5.67 2.02 5.34 1 5 C0.67 3.35 0.34 1.7 0 0 Z " fill="#0E6AEB" transform="translate(348,79)"/>
<path d="M0 0 C0.33 0 0.66 0 1 0 C1.24043967 4.08747443 0.47229757 7.18934747 -1 11 C-1.33 11.33 -1.66 11.66 -2 12 C-3.52368162 21.57724815 -3.32173735 31.51080694 -3.5625 41.1875 C-3.60579788 42.82357626 -3.6494153 44.45964409 -3.69335938 46.09570312 C-3.79925341 50.06371468 -3.90083523 54.03181481 -4 58 C-4.33 58 -4.66 58 -5 58 C-5.10002099 52.27495224 -5.17200425 46.55043004 -5.21972656 40.82470703 C-5.23965253 38.88321048 -5.26680349 36.94177242 -5.30175781 35.00048828 C-5.5158844 22.78897495 -5.60883195 11.21766389 0 0 Z " fill="#007DDC" transform="translate(154,198)"/>
<path d="M0 0 C0.99 0.33 1.98 0.66 3 1 C5.14255793 0.61067144 5.14255793 0.61067144 7 0 C6.27167969 0.6909375 5.54335937 1.381875 4.79296875 2.09375 C1.92340654 4.96634664 -0.40678523 8.15080728 -2.6875 11.5 C-3.07744141 12.05558594 -3.46738281 12.61117187 -3.86914062 13.18359375 C-6.04247548 16.34143072 -7.73668581 19.37894969 -9 23 C-9.33 23 -9.66 23 -10 23 C-10.33506294 17.52730529 -9.6071996 13.84194211 -7 9 C-3.80645161 6 -3.80645161 6 -1 6 C-0.67 4.02 -0.34 2.04 0 0 Z " fill="#21D4FD" transform="translate(162,180)"/>
<path d="M0 0 C11.97066157 1.82603312 21.89161747 8.25669806 31 16 C28.35220307 16 26.48412207 15.82804069 24 15 C23.67 14.34 23.34 13.68 23 13 C19.97065509 12.34227572 19.97065509 12.34227572 17 12 C17 11.01 17 10.02 17 9 C16.01 8.67 15.02 8.34 14 8 C14 7.34 14 6.68 14 6 C12.68 6 11.36 6 10 6 C10 5.34 10 4.68 10 4 C7.03 3.67 4.06 3.34 1 3 C0.67 2.01 0.34 1.02 0 0 Z " fill="#1669DB" transform="translate(268,97)"/>
<path d="M0 0 C0.98226562 0.48919922 0.98226562 0.48919922 1.984375 0.98828125 C3.35335937 1.64376953 3.35335937 1.64376953 4.75 2.3125 C6.07257813 2.95638672 6.07257813 2.95638672 7.421875 3.61328125 C17.77105293 7.62415261 27.72170084 8.50289817 38.75 8.6875 C40.14065502 8.72077314 41.53128129 8.75527149 42.921875 8.79101562 C46.28116841 8.87266512 49.64022796 8.94208393 53 9 C53 9.33 53 9.66 53 10 C13.25830331 11.17504107 13.25830331 11.17504107 0 2 C0 1.34 0 0.68 0 0 Z " fill="#29D2FE" transform="translate(171,292)"/>
<path d="M0 0 C-0.99 0.66 -1.98 1.32 -3 2 C-3.99 3.485 -3.99 3.485 -5 5 C-8.625 5.6875 -8.625 5.6875 -12 6 C-12 5.34 -12 4.68 -12 4 C-12.67546875 4.22816406 -13.3509375 4.45632812 -14.046875 4.69140625 C-14.93890625 4.97886719 -15.8309375 5.26632813 -16.75 5.5625 C-17.63171875 5.85253906 -18.5134375 6.14257812 -19.421875 6.44140625 C-22.13018796 7.02820739 -23.39972846 6.75639869 -26 6 C-23.08416415 5.01834721 -20.1671912 4.04011699 -17.25 3.0625 C-16.425 2.78470703 -15.6 2.50691406 -14.75 2.22070312 C-13.95078125 1.95322266 -13.1515625 1.68574219 -12.328125 1.41015625 C-11.5949707 1.16402588 -10.86181641 0.91789551 -10.10644531 0.66430664 C-6.2826341 -0.54160322 -3.90151744 -1.25405918 0 0 Z " fill="#136CE7" transform="translate(161,33)"/>
<path d="M0 0 C-1.32 0.33 -2.64 0.66 -4 1 C-4 1.66 -4 2.32 -4 3 C-6.69927553 4.90537096 -8.99093834 5.99751249 -12.1875 6.875 C-15.21985811 7.72272861 -15.21985811 7.72272861 -16.25 10.5625 C-16.4975 11.366875 -16.745 12.17125 -17 13 C-17.99 13.495 -17.99 13.495 -19 14 C-19.12375 13.360625 -19.2475 12.72125 -19.375 12.0625 C-19.58125 11.381875 -19.7875 10.70125 -20 10 C-20.66 9.67 -21.32 9.34 -22 9 C-4.42990654 -2.21495327 -4.42990654 -2.21495327 0 0 Z " fill="#1B6CDD" transform="translate(152,97)"/>
<path d="M0 0 C1.22419163 3.93795909 0.48320272 6.16112237 -1 10 C-0.01 10.33 0.98 10.66 2 11 C2 11.66 2 12.32 2 13 C0.35 13 -1.3 13 -3 13 C-5.64 17.95 -8.28 22.9 -11 28 C-11.33 27.01 -11.66 26.02 -12 25 C-11.00664799 23.32936253 -10.00568242 21.66324401 -9 20 C-7.89142732 15.89166525 -7.89142732 15.89166525 -9 12 C-8.22269531 11.94972656 -7.44539063 11.89945312 -6.64453125 11.84765625 C-3.76883549 11.2614613 -3.76883549 11.2614613 -2.63671875 8.49609375 C-2.16685547 6.98208984 -2.16685547 6.98208984 -1.6875 5.4375 C-1.36136719 4.42558594 -1.03523438 3.41367187 -0.69921875 2.37109375 C-0.46847656 1.58863281 -0.23773438 0.80617188 0 0 Z " fill="#097EE3" transform="translate(357,264)"/>
<path d="M0 0 C3.43752007 1.5277867 6.18953688 3.50181056 9 6 C9 6.66 9 7.32 9 8 C10.32 8.66 11.64 9.32 13 10 C13 10.66 13 11.32 13 12 C14.32 12.33 15.64 12.66 17 13 C16.67 13.66 16.34 14.32 16 15 C9.06601197 11.84255902 3.81265662 6.51328839 0 0 Z " fill="#1CD6FD" transform="translate(142,295)"/>
<path d="M0 0 C6.41291917 1.54794601 11.1344844 4.19729646 16.4375 8 C17.05254395 8.43940918 17.66758789 8.87881836 18.30126953 9.33154297 C21.10757773 11.39709185 23.04959454 13.07439181 25 16 C21.79339492 15.41571621 20.15263101 14.49190329 17.8125 12.25 C13.90319199 8.74423346 9.62629408 6.4298853 5 4 C3.31243867 3.03567924 1.63324311 2.05370523 0 1 C0 0.67 0 0.34 0 0 Z " fill="#1FD6FD" transform="translate(251,153)"/>
<path d="M0 0 C2.1382187 4.07382737 3.39215314 8.22598729 4.6875 12.625 C4.92533203 13.40101563 5.16316406 14.17703125 5.40820312 14.9765625 C7.12008843 20.75982313 7.12008843 20.75982313 6 23 C4.66666667 20.33333333 3.33333333 17.66666667 2 15 C1.60554688 14.31421875 1.21109375 13.6284375 0.8046875 12.921875 C0 11 0 11 1 8 C-0.32 7.67 -1.64 7.34 -3 7 C-2.34 6.67 -1.68 6.34 -1 6 C-0.34227572 2.97065509 -0.34227572 2.97065509 0 0 Z " fill="#126AE0" transform="translate(28,278)"/>
<path d="M0 0 C0.58203125 1.8828125 0.58203125 1.8828125 1 4 C0.04422943 5.36538653 -0.96352976 6.69481525 -2 8 C-2.268125 9.010625 -2.53625 10.02125 -2.8125 11.0625 C-4 14 -4 14 -7.125 15.875 C-8.548125 16.431875 -8.548125 16.431875 -10 17 C-8.51364884 12.78345644 -6.38750841 9.37521395 -3.875 5.6875 C-3.15054688 4.61886719 -2.42609375 3.55023438 -1.6796875 2.44921875 C-0.84824219 1.23685547 -0.84824219 1.23685547 0 0 Z " fill="#146BE4" transform="translate(100,134)"/>
<path d="M0 0 C0 5.58939072 -3.31648754 9.99147173 -7 14 C-9.625 15.875 -9.625 15.875 -12 17 C-12.66 16.67 -13.32 16.34 -14 16 C-13.32453125 15.26394531 -12.6490625 14.52789062 -11.953125 13.76953125 C-11.05200228 12.78392827 -10.15096517 11.79824701 -9.25 10.8125 C-8.36828125 9.84957031 -7.4865625 8.88664062 -6.578125 7.89453125 C-4.29020637 5.32582261 -2.11918393 2.70839628 0 0 Z " fill="#106AE3" transform="translate(354,352)"/>
<path d="M0 0 C0 0.99 0 1.98 0 3 C0.598125 3.12375 1.19625 3.2475 1.8125 3.375 C4 4 4 4 7 6 C0.58008874 5.42934122 -5.01589463 3.32655091 -11 1 C-6.66919651 -0.44360116 -4.45757577 -1.08427519 0 0 Z " fill="#1A6DE1" transform="translate(156,372)"/>
<path d="M0 0 C4.18423892 3.50897269 8.19588166 7.08060535 12 11 C11.67 11.66 11.34 12.32 11 13 C8.0625 12.1875 8.0625 12.1875 5 11 C4.67 10.01 4.34 9.02 4 8 C3.34 7.67 2.68 7.34 2 7 C1.4375 5.125 1.4375 5.125 1 3 C0.67 2.01 0.34 1.02 0 0 Z " fill="#1367DF" transform="translate(358,89)"/>
<path d="M0 0 C8.46272046 -0.59972035 15.12649912 0.92205201 23 4 C23 4.33 23 4.66 23 5 C21.00045254 5.04254356 18.99958364 5.04080783 17 5 C16.67 4.67 16.34 4.34 16 4 C13.31455654 3.43725235 10.63746613 2.91938977 7.9375 2.4375 C7.17888672 2.29892578 6.42027344 2.16035156 5.63867188 2.01757812 C3.75975025 1.67488173 1.87995299 1.3369927 0 1 C0 0.67 0 0.34 0 0 Z " fill="#17DFF5" transform="translate(228,148)"/>
<path d="M0 0 C7.1178153 2.03807293 14.06707281 4.40344742 21 7 C17.72814447 8.07310858 15.57052408 7.89263102 12.25 7.0625 C11.45078125 6.86785156 10.6515625 6.67320312 9.828125 6.47265625 C8.92320312 6.23869141 8.92320312 6.23869141 8 6 C8 5.34 8 4.68 8 4 C7.236875 3.896875 6.47375 3.79375 5.6875 3.6875 C2.77363954 2.94209384 1.97049603 2.15541061 0 0 Z " fill="#1A68D5" transform="translate(132,405)"/>
<path d="M0 0 C0.66 0.99 1.32 1.98 2 3 C4.20725073 3.36362818 4.20725073 3.36362818 6.625 3.1875 C7.44226563 3.16042969 8.25953125 3.13335937 9.1015625 3.10546875 C9.72804688 3.07066406 10.35453125 3.03585938 11 3 C11 3.66 11 4.32 11 5 C9.35 5 7.7 5 6 5 C5.67 6.65 5.34 8.3 5 10 C4.608125 9.360625 4.21625 8.72125 3.8125 8.0625 C1.61527704 5.56221181 0.24208567 5.35049575 -3 5 C-2.01 4.67 -1.02 4.34 0 4 C0 2.68 0 1.36 0 0 Z " fill="#1176DE" transform="translate(351,190)"/>
<path d="M0 0 C4.72065967 1.54269924 9.41664092 3.07794619 14 5 C10.78767875 6.07077375 8.36062193 6 5 6 C4.01 6.33 3.02 6.66 2 7 C2 5.35 2 3.7 2 2 C1.34 2 0.68 2 0 2 C0 1.34 0 0.68 0 0 Z " fill="#1469E0" transform="translate(284,40)"/>
<path d="M0 0 C-0.99 1.485 -0.99 1.485 -2 3 C-4.375 3.125 -4.375 3.125 -7 3 C-8.34332728 3.29044914 -9.68225804 3.60955794 -11 4 C-11 4.66 -11 5.32 -11 6 C-12.98 6 -14.96 6 -17 6 C-14.55436688 3.55436688 -12.24474828 2.65868745 -9.0625 1.3125 C-8.00160156 0.85488281 -6.94070312 0.39726563 -5.84765625 -0.07421875 C-3 -1 -3 -1 0 0 Z " fill="#1E6CDB" transform="translate(135,41)"/>
<path d="M0 0 C0 3.93974955 -1.47789475 5.82936093 -3.5 9.1875 C-4.47453125 10.81751953 -4.47453125 10.81751953 -5.46875 12.48046875 C-6.22671875 13.72763672 -6.22671875 13.72763672 -7 15 C-8.33332095 12.3333581 -7.67102033 10.83319697 -7 8 C-6.01 8 -5.02 8 -4 8 C-4 6.02 -4 4.04 -4 2 C-2.68 1.34 -1.36 0.68 0 0 Z " fill="#1B6CDC" transform="translate(332,313)"/>
<path d="M0 0 C0.33 0 0.66 0 1 0 C1.24043967 4.08747443 0.47229757 7.18934747 -1 11 C-1.33 11.33 -1.66 11.66 -2 12 C-2.23363881 13.84891946 -2.41303635 15.70488031 -2.5625 17.5625 C-2.64628906 18.57441406 -2.73007813 19.58632812 -2.81640625 20.62890625 C-2.87699219 21.41136719 -2.93757812 22.19382813 -3 23 C-3.33 23 -3.66 23 -4 23 C-4.53847315 14.42930243 -3.4673054 7.86335332 0 0 Z " fill="#0076EE" transform="translate(154,198)"/>
<path d="M0 0 C6.26418531 1.48362284 10.91513505 5.24162156 16 9 C15.01 9.33 14.02 9.66 13 10 C12.34 9.67 11.68 9.34 11 9 C11 8.34 11 7.68 11 7 C8.03 6.505 8.03 6.505 5 6 C5 5.01 5 4.02 5 3 C3.35 2.67 1.7 2.34 0 2 C0 1.34 0 0.68 0 0 Z " fill="#1A69D7" transform="translate(386,263)"/>
<path d="M0 0 C0.33 0.66 0.66 1.32 1 2 C0.54625 2.4125 0.0925 2.825 -0.375 3.25 C-2.05950374 5.06408095 -2.99265971 6.75285627 -4 9 C-4.66 9 -5.32 9 -6 9 C-6.268125 9.598125 -6.53625 10.19625 -6.8125 10.8125 C-7.98493467 12.97224808 -9.19369282 14.35790256 -11 16 C-9.66534338 12.22959506 -7.99723337 9.42875097 -5.5 6.3125 C-4.8915625 5.54550781 -4.283125 4.77851563 -3.65625 3.98828125 C-2 2 -2 2 0 0 Z " fill="#21D5FE" transform="translate(147,169)"/>
<path d="M0 0 C0.66 0.33 1.32 0.66 2 1 C-0.85211349 4.01056424 -3.2436708 6.25599001 -7 8 C-7.33 8.66 -7.66 9.32 -8 10 C-9.32 9.67 -10.64 9.34 -12 9 C-8.04 6.03 -4.08 3.06 0 0 Z " fill="#1C6BDF" transform="translate(92,61)"/>
<path d="M0 0 C0.33 0 0.66 0 1 0 C1.42423476 4.66658239 -0.05243909 7.80525342 -2 12 C-2.67276716 13.6642135 -3.34206835 15.32986582 -4 17 C-4.66 17 -5.32 17 -6 17 C-4.13236819 11.27789404 -2.14710968 5.62338249 0 0 Z " fill="#1D69DA" transform="translate(386,293)"/>
<path d="M0 0 C-1.06541016 0.41572266 -1.06541016 0.41572266 -2.15234375 0.83984375 C-3.53099609 1.38318359 -3.53099609 1.38318359 -4.9375 1.9375 C-5.85402344 2.29714844 -6.77054687 2.65679687 -7.71484375 3.02734375 C-9.92418533 3.7996218 -9.92418533 3.7996218 -11 5 C-12.51928038 5.07179964 -14.04167482 5.08392007 -15.5625 5.0625 C-16.38878906 5.05347656 -17.21507812 5.04445313 -18.06640625 5.03515625 C-18.70449219 5.02355469 -19.34257812 5.01195312 -20 5 C-16.60116186 3.15443924 -13.12196294 1.97358787 -9.4375 0.8125 C-8.30183594 0.44769531 -7.16617187 0.08289063 -5.99609375 -0.29296875 C-3 -1 -3 -1 0 0 Z " fill="#226CD3" transform="translate(272,412)"/>
<path d="M0 0 C0.33 0 0.66 0 1 0 C1 1.65 1 3.3 1 5 C0.34 5 -0.32 5 -1 5 C-1 5.66 -1 6.32 -1 7 C-2.6454378 8.68762851 -4.31288577 10.3540349 -6 12 C-6.33 12.66 -6.66 13.32 -7 14 C-7.66 14 -8.32 14 -9 14 C-7.45315734 10.67312232 -5.54045021 7.75296022 -3.4375 4.75 C-2.81746094 3.85796875 -2.19742187 2.9659375 -1.55859375 2.046875 C-1.04425781 1.37140625 -0.52992188 0.6959375 0 0 Z " fill="#166BD4" transform="translate(364,338)"/>
<path d="M0 0 C2 2 2 2 2 4.4375 C1 7 1 7 -2.0625 8.8125 C-3.031875 9.204375 -4.00125 9.59625 -5 10 C-3.66511872 6.40608886 -2.03977277 3.24509304 0 0 Z " fill="#156AE1" transform="translate(370,328)"/>
<path d="M0 0 C4 4 8 8 12 12 C11.01 12.33 10.02 12.66 9 13 C8.59007812 12.50628906 8.18015625 12.01257813 7.7578125 11.50390625 C7.21898437 10.86324219 6.68015625 10.22257812 6.125 9.5625 C5.59132812 8.92441406 5.05765625 8.28632813 4.5078125 7.62890625 C3.0777243 5.89194996 3.0777243 5.89194996 1 5 C0.375 2.4375 0.375 2.4375 0 0 Z " fill="#0079EA" transform="translate(140,294)"/>
<path d="M0 0 C0.66 0 1.32 0 2 0 C1.54979057 5.85272256 -1.03839227 10.08220119 -4 15 C-4.33 14.01 -4.66 13.02 -5 12 C-4.02065076 10.32111559 -3.01656081 8.65661761 -2 7 C-1.27833809 4.68308546 -0.59940471 2.35151077 0 0 Z " fill="#1D70DC" transform="translate(350,277)"/>
<path d="M0 0 C0.66 0.33 1.32 0.66 2 1 C0.35 5.62 -1.3 10.24 -3 15 C-3.33 15 -3.66 15 -4 15 C-4.34650743 9.34037856 -3.48055609 5.96111218 -1 1 C-0.67 0.67 -0.34 0.34 0 0 Z " fill="#16E0F7" transform="translate(156,188)"/>
<path d="M0 0 C-0.33 1.32 -0.66 2.64 -1 4 C-2.3921875 3.9071875 -2.3921875 3.9071875 -3.8125 3.8125 C-6.98395103 3.69105736 -6.98395103 3.69105736 -8.875 5.5 C-9.24625 5.995 -9.6175 6.49 -10 7 C-10.66 6.67 -11.32 6.34 -12 6 C-7.9356402 1.59694355 -5.91662521 0 0 0 Z " fill="#1BDFF9" transform="translate(160,162)"/>
<path d="M0 0 C0.86625 0.3403125 0.86625 0.3403125 1.75 0.6875 C-1 6.5625 -1 6.5625 -3.25 7.6875 C-3.37375 7.048125 -3.4975 6.40875 -3.625 5.75 C-3.934375 4.7290625 -3.934375 4.7290625 -4.25 3.6875 C-4.91 3.3575 -5.57 3.0275 -6.25 2.6875 C-2.80384615 -0.38942308 -2.80384615 -0.38942308 0 0 Z " fill="#0F6DEB" transform="translate(136.25,103.3125)"/>
<path d="M0 0 C1.134375 0.020625 2.26875 0.04125 3.4375 0.0625 C-1.38896677 3.28014451 -6.76071824 4.42511136 -12.5625 4.0625 C-12.5625 3.4025 -12.5625 2.7425 -12.5625 2.0625 C-10.51171875 1.83463542 -8.4609375 1.60677083 -6.41015625 1.37890625 C-3.20046765 0.82925556 -4.00105232 0.0701939 0 0 Z " fill="#1C6DDB" transform="translate(262.5625,374.9375)"/>
<path d="M0 0 C0.99 0.495 0.99 0.495 2 1 C2 1.99 2 2.98 2 4 C2.99 4.33 3.98 4.66 5 5 C5.66 8.63 6.32 12.26 7 16 C4.55993671 12.74658227 3.24355138 10.54858018 1.8125 6.875 C1.46832031 6.00617188 1.12414062 5.13734375 0.76953125 4.2421875 C0 2 0 2 0 0 Z " fill="#1E6CD5" transform="translate(15,313)"/>
<path d="M0 0 C2.9375 0.9375 2.9375 0.9375 6 3 C6.84403097 5.99392117 6.98699834 8.89910366 7 12 C0 3.55172414 0 3.55172414 0 0 Z " fill="#186CDC" transform="translate(81,304)"/>
<path d="M0 0 C0 0.66 0 1.32 0 2 C-0.639375 2.28875 -1.27875 2.5775 -1.9375 2.875 C-4.15206079 3.82823451 -4.15206079 3.82823451 -5 6 C-5.66 6 -6.32 6 -7 6 C-7.33 6.66 -7.66 7.32 -8 8 C-9.65 8 -11.3 8 -13 8 C-10.83676753 5.68757908 -8.62352196 3.9843604 -5.9375 2.3125 C-5.24527344 1.87550781 -4.55304688 1.43851562 -3.83984375 0.98828125 C-2 0 -2 0 0 0 Z " fill="#1B6BD4" transform="translate(312,391)"/>
<path d="M0 0 C3.63559661 3.43361902 6.36113346 6.7973607 9 11 C7.0625 10.625 7.0625 10.625 5 10 C4.67 9.34 4.34 8.68 4 8 C3.01 8 2.02 8 1 8 C1.020625 7.236875 1.04125 6.47375 1.0625 5.6875 C1.12942841 2.89814214 1.12942841 2.89814214 0 0 Z " fill="#1368D7" transform="translate(57,343)"/>
<path d="M0 0 C0.33 0.66 0.66 1.32 1 2 C-0.21484375 4.6015625 -0.21484375 4.6015625 -1.9375 7.625 C-2.78634766 9.12933594 -2.78634766 9.12933594 -3.65234375 10.6640625 C-4.09707031 11.43492187 -4.54179687 12.20578125 -5 13 C-5.33 13 -5.66 13 -6 13 C-6 11.02 -6 9.04 -6 7 C-5.34 7 -4.68 7 -4 7 C-3.71125 6.21625 -3.4225 5.4325 -3.125 4.625 C-2 2 -2 2 0 0 Z " fill="#1A6CDA" transform="translate(395,329)"/>
<path d="M0 0 C1.65 0 3.3 0 5 0 C3.19587357 3.26460973 2.16605307 4.88929795 -1 7 C-2 4 -2 4 -1.0625 1.8125 C-0.5365625 0.9153125 -0.5365625 0.9153125 0 0 Z " fill="#0E6DE4" transform="translate(68,108)"/>
<path d="M0 0 C0.66 0 1.32 0 2 0 C1.47731534 2.76276177 0.89130413 5.3260876 0 8 C-0.66 8 -1.32 8 -2 8 C-2 8.66 -2 9.32 -2 10 C-2.66 10 -3.32 10 -4 10 C-2.8905928 6.51329166 -1.73662334 3.22515763 0 0 Z " fill="#1768DC" transform="translate(379,311)"/>
<path d="M0 0 C11.52164009 -0.3690205 11.52164009 -0.3690205 17 2 C17 2.33 17 2.66 17 3 C14.66705225 3.04241723 12.33297433 3.04092937 10 3 C9.67 2.67 9.34 2.34 9 2 C7.48530552 1.76807135 5.96245438 1.58784762 4.4375 1.4375 C3.61121094 1.35371094 2.78492188 1.26992187 1.93359375 1.18359375 C1.29550781 1.12300781 0.65742188 1.06242187 0 1 C0 0.67 0 0.34 0 0 Z " fill="#1B6BDA" transform="translate(235,90)"/>
<path d="M0 0 C4.30764815 1.56641751 8.06171464 3.68336156 12 6 C11.01 6.495 11.01 6.495 10 7 C7.98276656 6.03523618 5.98387708 5.03161608 4 4 C1.76474965 3.31363375 1.76474965 3.31363375 0 3 C0 2.01 0 1.02 0 0 Z " fill="#1A67D5" transform="translate(108,392)"/>
<path d="M0 0 C-3.96 3.465 -3.96 3.465 -8 7 C-8.66 6.01 -9.32 5.02 -10 4 C-9.67 3.34 -9.34 2.68 -9 2 C-8.01 2.33 -7.02 2.66 -6 3 C-6 2.01 -6 1.02 -6 0 C-2.25 -1.125 -2.25 -1.125 0 0 Z " fill="#1AD8FB" transform="translate(282,298)"/>
<path d="M0 0 C3.43927579 1.2419607 6.25207819 2.55740284 9 5 C9 5.66 9 6.32 9 7 C9.99 7.33 10.98 7.66 12 8 C11.67 8.66 11.34 9.32 11 10 C9.16375669 8.52444734 7.3310715 7.04446569 5.5 5.5625 C4.4790625 4.73878906 3.458125 3.91507813 2.40625 3.06640625 C1.6121875 2.38449219 0.818125 1.70257813 0 1 C0 0.67 0 0.34 0 0 Z " fill="#0077E7" transform="translate(269,162)"/>
<path d="M0 0 C0.33 0.66 0.66 1.32 1 2 C0.34 2 -0.32 2 -1 2 C-0.34 3.32 0.32 4.64 1 6 C-2.3 5.01 -5.6 4.02 -9 3 C-9 2.67 -9 2.34 -9 2 C-6.03 1.34 -3.06 0.68 0 0 Z " fill="#136ADC" transform="translate(276,56)"/>
<path d="M0 0 C0 0.66 0 1.32 0 2 C-0.66 2 -1.32 2 -2 2 C-2.33 2.99 -2.66 3.98 -3 5 C-5.64 5.33 -8.28 5.66 -11 6 C-3.28571429 0 -3.28571429 0 0 0 Z " fill="#196CDD" transform="translate(118,47)"/>
<path d="M0 0 C0.66 1.32 1.32 2.64 2 4 C0.35 6.31 -1.3 8.62 -3 11 C-3.33 10.34 -3.66 9.68 -4 9 C-3.22265625 6.8359375 -3.22265625 6.8359375 -2.0625 4.375 C-1.68222656 3.55773437 -1.30195313 2.74046875 -0.91015625 1.8984375 C-0.60980469 1.27195313 -0.30945313 0.64546875 0 0 Z " fill="#1A6ADD" transform="translate(20,144)"/>
<path d="M0 0 C0.33 0.66 0.66 1.32 1 2 C0.00390625 4.3828125 0.00390625 4.3828125 -1.4375 7.125 C-1.91058594 8.03507813 -2.38367187 8.94515625 -2.87109375 9.8828125 C-3.24363281 10.58148438 -3.61617187 11.28015625 -4 12 C-4.33 12 -4.66 12 -5 12 C-5 10.35 -5 8.7 -5 7 C-4.34 7 -3.68 7 -3 7 C-3.061875 6.21625 -3.12375 5.4325 -3.1875 4.625 C-3.125625 3.75875 -3.06375 2.8925 -3 2 C-2.01 1.34 -1.02 0.68 0 0 Z " fill="#1A6BD6" transform="translate(46,144)"/>
<path d="M0 0 C0.66 0 1.32 0 2 0 C1.71640113 1.4391134 1.42278601 2.87625518 1.125 4.3125 C0.88136719 5.51326172 0.88136719 5.51326172 0.6328125 6.73828125 C0 9 0 9 -2 12 C-2 9.36 -2 6.72 -2 4 C-1.34 4 -0.68 4 0 4 C0 2.68 0 1.36 0 0 Z " fill="#196CDC" transform="translate(407,296)"/>
<path d="M0 0 C2.9156164 3.54039134 5.50127818 7.1626772 8 11 C6.1875 10.8125 6.1875 10.8125 4 10 C1.59610056 6.79480075 0.56375395 3.94627764 0 0 Z " fill="#23D8FD" transform="translate(156,276)"/>
<path d="M0 0 C0 1.65 0 3.3 0 5 C-3.3 4.67 -6.6 4.34 -10 4 C-10 3.67 -10 3.34 -10 3 C-8.52144705 2.49818809 -7.04213942 1.99859924 -5.5625 1.5 C-4.73878906 1.2215625 -3.91507812 0.943125 -3.06640625 0.65625 C-1 0 -1 0 0 0 Z " fill="#0274EA" transform="translate(359,249)"/>
<path d="M0 0 C2.64 0 5.28 0 8 0 C8 0.66 8 1.32 8 2 C8.66 2 9.32 2 10 2 C10.33 2.99 10.66 3.98 11 5 C9.35153231 4.55123384 7.70626545 4.09069512 6.0625 3.625 C5.14597656 3.36976563 4.22945313 3.11453125 3.28515625 2.8515625 C1 2 1 2 0 0 Z " fill="#14E2F8" transform="translate(283,203)"/>
<path d="M0 0 C1.98 0 3.96 0 6 0 C6.66 2.31 7.32 4.62 8 7 C6.66382648 6.02471263 5.3311249 5.04466681 4 4.0625 C3.2575 3.51722656 2.515 2.97195312 1.75 2.41015625 C1.1725 1.94480469 0.595 1.47945313 0 1 C0 0.67 0 0.34 0 0 Z " fill="#1268E2" transform="translate(327,91)"/>
<path d="M0 0 C2.31 0 4.62 0 7 0 C3.71739341 2.18840439 0.49181927 4.15885893 -3 6 C-3.66 5.67 -4.32 5.34 -5 5 C-4.01 4.67 -3.02 4.34 -2 4 C-2 3.34 -2 2.68 -2 2 C-1.34 2 -0.68 2 0 2 C0 1.34 0 0.68 0 0 Z " fill="#1C69D5" transform="translate(127,65)"/>
<path d="M0 0 C2 2 2 2 2 4 C2.99 4.66 3.98 5.32 5 6 C5 6.66 5 7.32 5 8 C0.32307692 6.52307692 0.32307692 6.52307692 -1.3125 3.875 C-1.539375 3.25625 -1.76625 2.6375 -2 2 C-1.34 2 -0.68 2 0 2 C0 1.34 0 0.68 0 0 Z " fill="#0E6BED" transform="translate(277,56)"/>
<path d="M0 0 C-0.33 0.66 -0.66 1.32 -1 2 C-0.67 2.99 -0.34 3.98 0 5 C-2.02045442 4.39816251 -4.02111039 3.72693904 -6 3 C-6.33 2.34 -6.66 1.68 -7 1 C-3.375 -1.125 -3.375 -1.125 0 0 Z " fill="#0170F3" transform="translate(178,290)"/>
<path d="M0 0 C2.625 0.375 2.625 0.375 5 1 C3.35 2.65 1.7 4.3 0 6 C-0.66 4.68 -1.32 3.36 -2 2 C-1.34 1.34 -0.68 0.68 0 0 Z " fill="#0075F2" transform="translate(258,282)"/>
<path d="M0 0 C1.62723299 0.45034123 3.25173664 0.91055354 4.875 1.375 C5.77992188 1.63023437 6.68484375 1.88546875 7.6171875 2.1484375 C10 3 10 3 12 5 C9.36 5 6.72 5 4 5 C3.67 4.01 3.34 3.02 3 2 C2.01 1.67 1.02 1.34 0 1 C0 0.67 0 0.34 0 0 Z " fill="#1869DA" transform="translate(372,257)"/>
<path d="M0 0 C0.99 0.33 1.98 0.66 3 1 C2.67 2.65 2.34 4.3 2 6 C0.68 5.34 -0.64 4.68 -2 4 C-2 3.01 -2 2.02 -2 1 C-1.34 0.67 -0.68 0.34 0 0 Z " fill="#0173F1" transform="translate(284,170)"/>
<path d="M0 0 C0.33 0 0.66 0 1 0 C1.375 2.25 1.375 2.25 1 5 C-2 7.3125 -2 7.3125 -5 9 C-3.75471468 5.55151758 -2.38532951 2.80016942 0 0 Z " fill="#176CDD" transform="translate(36,117)"/>
<path d="M0 0 C0.33 1.65 0.66 3.3 1 5 C-4.75 3.25 -4.75 3.25 -7 1 C-2.25 0 -2.25 0 0 0 Z " fill="#196BE2" transform="translate(116,418)"/>
<path d="M0 0 C1.65 0 3.3 0 5 0 C5.66 1.32 6.32 2.64 7 4 C6.34 4.66 5.68 5.32 5 6 C3.35 4.02 1.7 2.04 0 0 Z " fill="#156BE2" transform="translate(47,368)"/>
<path d="M0 0 C0.99 0.33 1.98 0.66 3 1 C5.14255793 0.61067144 5.14255793 0.61067144 7 0 C2.375 4.875 2.375 4.875 -1 6 C-0.67 4.02 -0.34 2.04 0 0 Z " fill="#18DEFA" transform="translate(162,180)"/>
<path d="M0 0 C0.66 0 1.32 0 2 0 C2 1.32 2 2.64 2 4 C2.66 4.33 3.32 4.66 4 5 C3.01 6.485 3.01 6.485 2 8 C0.68 6.35 -0.64 4.7 -2 3 C-1 1 -1 1 0 0 Z " fill="#126AE2" transform="translate(354,114)"/>
<path d="M0 0 C0.33 0.99 0.66 1.98 1 3 C-0.25 4.5625 -0.25 4.5625 -2 6 C-4.1875 5.6875 -4.1875 5.6875 -6 5 C-4.02 3.35 -2.04 1.7 0 0 Z " fill="#1269E1" transform="translate(72,77)"/>
<path d="M0 0 C2.64 0 5.28 0 8 0 C5.29811996 1.80125336 3.06942297 3.00243753 0 4 C-0.99 3.67 -1.98 3.34 -3 3 C-2.34 3 -1.68 3 -1 3 C-0.67 2.01 -0.34 1.02 0 0 Z " fill="#146CD9" transform="translate(141,59)"/>
<path d="M0 0 C1.65 0 3.3 0 5 0 C5.66 1.98 6.32 3.96 7 6 C3.63279613 4.60667426 2.0140476 3.0210714 0 0 Z " fill="#156ADF" transform="translate(71,392)"/>
<path d="M0 0 C0.66 0 1.32 0 2 0 C2.433125 1.423125 2.433125 1.423125 2.875 2.875 C3.76825109 6.05211578 3.76825109 6.05211578 6 8 C5.34 8 4.68 8 4 8 C3.67 8.99 3.34 9.98 3 11 C2.49384702 9.73160474 1.99530901 8.46016898 1.5 7.1875 C1.2215625 6.47980469 0.943125 5.77210938 0.65625 5.04296875 C0 3 0 3 0 0 Z " fill="#1C6BD9" transform="translate(381,162)"/>
<path d="M0 0 C1.32 0.33 2.64 0.66 4 1 C4 1.66 4 2.32 4 3 C5.32 3.33 6.64 3.66 8 4 C7.67 4.66 7.34 5.32 7 6 C3.63279613 4.60667426 2.0140476 3.0210714 0 0 Z " fill="#1164DD" transform="translate(64,386)"/>
<path d="M0 0 C0.33 0.99 0.66 1.98 1 3 C2.32 2.67 3.64 2.34 5 2 C4.67 3.65 4.34 5.3 4 7 C3.34 7 2.68 7 2 7 C2 6.34 2 5.68 2 5 C1.34 5 0.68 5 0 5 C0 3.35 0 1.7 0 0 Z " fill="#0F6AED" transform="translate(59,248)"/>
<path d="M0 0 C0.66 0 1.32 0 2 0 C2.33 1.98 2.66 3.96 3 6 C2.34 6 1.68 6 1 6 C0.67 6.66 0.34 7.32 0 8 C0 5.36 0 2.72 0 0 Z " fill="#045CEE" transform="translate(0,248)"/>
<path d="M0 0 C4 4.75 4 4.75 4 7 C3.01 7.33 2.02 7.66 1 8 C0.34 7.34 -0.32 6.68 -1 6 C-0.34 6 0.32 6 1 6 C0.67 4.02 0.34 2.04 0 0 Z " fill="#1469E3" transform="translate(325,144)"/>
<path d="M0 0 C1.46015291 0.28241641 2.91809793 0.57626614 4.375 0.875 C5.18710938 1.03742188 5.99921875 1.19984375 6.8359375 1.3671875 C9 2 9 2 11 4 C7.06225823 4.36630156 5.43460229 4.30233203 2.125 2 C1.42375 1.34 0.7225 0.68 0 0 Z " fill="#25D6FC" transform="translate(240,149)"/>
<path d="M0 0 C1.98 0 3.96 0 6 0 C3.6875 2.5 3.6875 2.5 1 5 C0.01 5 -0.98 5 -2 5 C-1.67 4.360625 -1.34 3.72125 -1 3.0625 C0.07271225 1.23205433 0.07271225 1.23205433 0 0 Z " fill="#156BD7" transform="translate(96,83)"/>
<path d="M0 0 C2.31 0.33 4.62 0.66 7 1 C7 1.66 7 2.32 7 3 C7.99 3 8.98 3 10 3 C10 3.66 10 4.32 10 5 C6.08788267 3.84414715 3.1254959 2.64465038 0 0 Z " fill="#196BD6" transform="translate(287,66)"/>
<path d="M0 0 C2.475 0.99 2.475 0.99 5 2 C3.02 2.99 3.02 2.99 1 4 C0.67 2.68 0.34 1.36 0 0 Z M-2 3 C-1.01 3.33 -0.02 3.66 1 4 C0.01 4.66 -0.98 5.32 -2 6 C-2 5.01 -2 4.02 -2 3 Z " fill="#1168E7" transform="translate(318,57)"/>
<path d="M0 0 C3.63 0.33 7.26 0.66 11 1 C11 1.33 11 1.66 11 2 C7.7 2.33 4.4 2.66 1 3 C0.67 2.01 0.34 1.02 0 0 Z " fill="#186AD9" transform="translate(242,29)"/>
<path d="M0 0 C3.68754757 0.49831724 5.60490662 1.10067643 8 4 C7.01 4.495 7.01 4.495 6 5 C3.98079663 3.69593116 1.98075027 2.36176581 0 1 C0 0.67 0 0.34 0 0 Z " fill="#196BDD" transform="translate(96,411)"/>
<path d="M0 0 C1.98 0.99 1.98 0.99 4 2 C4 2.66 4 3.32 4 4 C5.32 4.33 6.64 4.66 8 5 C7.67 5.66 7.34 6.32 7 7 C3.17053157 5.54744301 1.87949705 3.57104439 0 0 Z " fill="#19E0F6" transform="translate(151,303)"/>
<path d="M0 0 C0.66 0.33 1.32 0.66 2 1 C0.35 2.98 -1.3 4.96 -3 7 C-4 4 -4 4 -3 1 C-2.01 0.67 -1.02 0.34 0 0 Z " fill="#0077E6" transform="translate(143,171)"/>
<path d="M0 0 C0.33 1.32 0.66 2.64 1 4 C0.34 4 -0.32 4 -1 4 C-1.33 5.65 -1.66 7.3 -2 9 C-2.66 9 -3.32 9 -4 9 C-2.94124926 5.59687262 -1.99097846 2.98646769 0 0 Z " fill="#1D6BDC" transform="translate(84,160)"/>
<path d="M0 0 C4 4.75 4 4.75 4 7 C2.68 6.67 1.36 6.34 0 6 C0 4.02 0 2.04 0 0 Z " fill="#136BE1" transform="translate(333,158)"/>
<path d="M0 0 C1.32 1.65 2.64 3.3 4 5 C3.67 5.66 3.34 6.32 3 7 C1.68 7 0.36 7 -1 7 C-0.67 4.69 -0.34 2.38 0 0 Z " fill="#146AE0" transform="translate(388,127)"/>
<path d="M0 0 C0.66 0.33 1.32 0.66 2 1 C0.25 3.0625 0.25 3.0625 -2 5 C-4.25 4.75 -4.25 4.75 -6 4 C-4.02 2.68 -2.04 1.36 0 0 Z " fill="#1E6AD8" transform="translate(100,56)"/>
</svg>
